HIERARCHY
ROOT Hips
{
	OFFSET -0.089718 121.760773 1.256875
	CHANNELS 6 Xposition Yposition Zposition Xrotation Yrotation Zrotation 
	JOINT Spine
	{
		OFFSET 0.071961 7.257324 -0.789679
		CHANNELS 3 Xrotation Yrotation Zrotation
		JOINT Spine1
		{
			OFFSET 0.000000 12.508743 -0.658066
			CHANNELS 3 Xrotation Yrotation Zrotation
			JOINT Spine1_split
			{
				OFFSET 0.000000 12.508743 -0.658066
				CHANNELS 3 Xrotation Yrotation Zrotation
				JOINT Spine2
				{
					OFFSET 0.000000 12.508743 -0.658066
					CHANNELS 3 Xrotation Yrotation Zrotation
					JOINT Neck
					{
						OFFSET 0.000000 14.033295 7.520357
						CHANNELS 3 Xrotation Yrotation Zrotation
						JOINT Head
						{
							OFFSET 0.000000 8.198502 5.703135
							CHANNELS 3 Xrotation Yrotation Zrotation
							JOINT HeadTop_End
							{
								OFFSET 0.000000 17.760834 13.332673
								CHANNELS 3 Xrotation Yrotation Zrotation
								End Site
								{
									OFFSET 0.000000 0.000000 0.000000
								}
							}
						}
					}
					JOINT LeftShoulder
					{
						OFFSET 6.292447 5.785309 -0.668987
						CHANNELS 3 Xrotation Yrotation Zrotation
						JOINT LeftShoulder_split
						{
							OFFSET 6.292447 5.785309 -0.668987
							CHANNELS 3 Xrotation Yrotation Zrotation
							JOINT LeftArm
							{
								OFFSET 13.906050 -6.096512 1.965051
								CHANNELS 3 Xrotation Yrotation Zrotation
								JOINT LeftForeArm
								{
									OFFSET 34.136707 -0.070145 0.483191
									CHANNELS 3 Xrotation Yrotation Zrotation
									JOINT LeftHand
									{
										OFFSET 40.956070 -0.000046 0.579759
										CHANNELS 3 Xrotation Yrotation Zrotation
										JOINT LeftHandThumb1
										{
											OFFSET 9.870941 -7.205917 9.687083
											CHANNELS 3 Xrotation Yrotation Zrotation
											JOINT LeftHandThumb2
											{
												OFFSET 1.819832 -1.059479 1.085292
												CHANNELS 3 Xrotation Yrotation Zrotation
												JOINT LeftHandThumb3
												{
													OFFSET 2.094803 -1.219498 1.249332
													CHANNELS 3 Xrotation Yrotation Zrotation
													JOINT LeftHandThumb4
													{
														OFFSET 4.803749 -2.796570 2.864868
														CHANNELS 3 Xrotation Yrotation Zrotation
														End Site
														{
															OFFSET 0.000000 0.000000 0.000000
														}
													}
												}
											}
										}
										JOINT LeftHandIndex1
										{
											OFFSET 18.323029 -0.939438 4.853191
											CHANNELS 3 Xrotation Yrotation Zrotation
											JOINT LeftHandIndex2
											{
												OFFSET 4.710793 -0.000031 0.066666
												CHANNELS 3 Xrotation Yrotation Zrotation
												JOINT LeftHandIndex3
												{
													OFFSET 2.876877 -0.226105 0.045824
													CHANNELS 3 Xrotation Yrotation Zrotation
													JOINT LeftHandIndex4
													{
														OFFSET 6.145302 -0.000046 0.087005
														CHANNELS 3 Xrotation Yrotation Zrotation
														End Site
														{
															OFFSET 0.000000 0.000000 0.000000
														}
													}
												}
											}
										}
										JOINT LeftHandMiddle1
										{
											OFFSET 18.011223 0.000015 0.254925
											CHANNELS 3 Xrotation Yrotation Zrotation
											JOINT LeftHandMiddle2
											{
												OFFSET 4.946175 -0.000015 0.070024
												CHANNELS 3 Xrotation Yrotation Zrotation
												JOINT LeftHandMiddle3
												{
													OFFSET 3.341888 0.000015 0.047322
													CHANNELS 3 Xrotation Yrotation Zrotation
													JOINT LeftHandMiddle4
													{
														OFFSET 4.461334 -0.000031 0.063172
														CHANNELS 3 Xrotation Yrotation Zrotation
														End Site
														{
															OFFSET 0.000000 0.000000 0.000000
														}
													}
												}
											}
										}
										JOINT LeftHandRing1
										{
											OFFSET 15.906670 -0.087616 -3.901815
											CHANNELS 3 Xrotation Yrotation Zrotation
											JOINT LeftHandRing2
											{
												OFFSET 3.526680 -0.000031 0.049965
												CHANNELS 3 Xrotation Yrotation Zrotation
												JOINT LeftHandRing3
												{
													OFFSET 2.960831 -0.000015 0.041910
													CHANNELS 3 Xrotation Yrotation Zrotation
													JOINT LeftHandRing4
													{
														OFFSET 4.926727 -0.000031 0.069761
														CHANNELS 3 Xrotation Yrotation Zrotation
														End Site
														{
															OFFSET 0.000000 0.000000 0.000000
														}
													}
												}
											}
										}
										JOINT LeftHandPinky1
										{
											OFFSET 12.886803 -0.806839 -6.620516
											CHANNELS 3 Xrotation Yrotation Zrotation
											JOINT LeftHandPinky2
											{
												OFFSET 3.326813 0.000000 0.047121
												CHANNELS 3 Xrotation Yrotation Zrotation
												JOINT LeftHandPinky3
												{
													OFFSET 3.014618 -0.000031 0.042702
													CHANNELS 3 Xrotation Yrotation Zrotation
													JOINT LeftHandPinky4
													{
														OFFSET 5.847153 0.000031 0.082745
														CHANNELS 3 Xrotation Yrotation Zrotation
														End Site
														{
															OFFSET 0.000000 0.000000 0.000000
														}
													}
												}
											}
										}
									}
								}
							}
						}
					}
					JOINT RightShoulder
					{
						OFFSET -6.292447 5.785309 -0.668987
						CHANNELS 3 Xrotation Yrotation Zrotation
						JOINT RightShoulder_split
						{
							OFFSET -6.292447 5.785309 -0.668987
							CHANNELS 3 Xrotation Yrotation Zrotation
							JOINT RightArm
							{
								OFFSET -13.906046 -6.096527 1.965051
								CHANNELS 3 Xrotation Yrotation Zrotation
								JOINT RightForeArm
								{
									OFFSET -34.136711 -0.070145 0.483195
									CHANNELS 3 Xrotation Yrotation Zrotation
									JOINT RightHand
									{
										OFFSET -40.956062 -0.000031 0.579796
										CHANNELS 3 Xrotation Yrotation Zrotation
										JOINT RightHandThumb1
										{
											OFFSET -9.870895 -7.205978 9.687082
											CHANNELS 3 Xrotation Yrotation Zrotation
											JOINT RightHandThumb2
											{
												OFFSET -1.819832 -1.059479 1.085295
												CHANNELS 3 Xrotation Yrotation Zrotation
												JOINT RightHandThumb3
												{
													OFFSET -2.094826 -1.219513 1.249285
													CHANNELS 3 Xrotation Yrotation Zrotation
													JOINT RightHandThumb4
													{
														OFFSET -4.803757 -2.796585 2.864836
														CHANNELS 3 Xrotation Yrotation Zrotation
														End Site
														{
															OFFSET 0.000000 0.000000 0.000000
														}
													}
												}
											}
										}
										JOINT RightHandIndex1
										{
											OFFSET -18.323013 -0.939499 4.853236
											CHANNELS 3 Xrotation Yrotation Zrotation
											JOINT RightHandIndex2
											{
												OFFSET -4.710800 -0.000031 0.066705
												CHANNELS 3 Xrotation Yrotation Zrotation
												JOINT RightHandIndex3
												{
													OFFSET -2.876869 -0.226089 0.045846
													CHANNELS 3 Xrotation Yrotation Zrotation
													JOINT RightHandIndex4
													{
														OFFSET -6.145317 0.000000 0.087043
														CHANNELS 3 Xrotation Yrotation Zrotation
														End Site
														{
															OFFSET 0.000000 0.000000 0.000000
														}
													}
												}
											}
										}
										JOINT RightHandMiddle1
										{
											OFFSET -18.011230 -0.000031 0.254973
											CHANNELS 3 Xrotation Yrotation Zrotation
											JOINT RightHandMiddle2
											{
												OFFSET -4.946175 0.000000 0.069982
												CHANNELS 3 Xrotation Yrotation Zrotation
												JOINT RightHandMiddle3
												{
													OFFSET -3.341881 0.000000 0.047287
													CHANNELS 3 Xrotation Yrotation Zrotation
													JOINT RightHandMiddle4
													{
														OFFSET -4.461334 -0.000031 0.063116
														CHANNELS 3 Xrotation Yrotation Zrotation
														End Site
														{
															OFFSET 0.000000 0.000000 0.000000
														}
													}
												}
											}
										}
										JOINT RightHandRing1
										{
											OFFSET -15.906685 -0.087631 -3.901773
											CHANNELS 3 Xrotation Yrotation Zrotation
											JOINT RightHandRing2
											{
												OFFSET -3.526680 -0.000046 0.049887
												CHANNELS 3 Xrotation Yrotation Zrotation
												JOINT RightHandRing3
												{
													OFFSET -2.960831 0.000015 0.041926
													CHANNELS 3 Xrotation Yrotation Zrotation
													JOINT RightHandRing4
													{
														OFFSET -4.926727 -0.000061 0.069777
														CHANNELS 3 Xrotation Yrotation Zrotation
														End Site
														{
															OFFSET 0.000000 0.000000 0.000000
														}
													}
												}
											}
										}
										JOINT RightHandPinky1
										{
											OFFSET -12.886818 -0.806839 -6.620485
											CHANNELS 3 Xrotation Yrotation Zrotation
											JOINT RightHandPinky2
											{
												OFFSET -3.326813 -0.000015 0.047130
												CHANNELS 3 Xrotation Yrotation Zrotation
												JOINT RightHandPinky3
												{
													OFFSET -3.014618 0.000000 0.042665
													CHANNELS 3 Xrotation Yrotation Zrotation
													JOINT RightHandPinky4
													{
														OFFSET -5.847153 -0.000031 0.082798
														CHANNELS 3 Xrotation Yrotation Zrotation
														End Site
														{
															OFFSET 0.000000 0.000000 0.000000
														}
													}
												}
											}
										}
									}
								}
							}
						}
					}
				}
			}
		}
	}
	JOINT LeftUpLeg
	{
		OFFSET 13.026871 -6.336296 -1.092769
		CHANNELS 3 Xrotation Yrotation Zrotation
		JOINT LeftLeg
		{
			OFFSET 0.531735 -46.096748 9.782727
			CHANNELS 3 Xrotation Yrotation Zrotation
			JOINT LeftFoot
			{
				OFFSET -0.516061 -53.427502 -12.948194
				CHANNELS 3 Xrotation Yrotation Zrotation
				JOINT LeftToeBase
				{
					OFFSET 0.192221 -14.009666 16.364061
					CHANNELS 3 Xrotation Yrotation Zrotation
					JOINT LeftToe_End
					{
						OFFSET -1.784717 -0.561736 9.474806
						CHANNELS 3 Xrotation Yrotation Zrotation
						End Site
						{
							OFFSET 0.000000 0.000000 0.000000
						}
					}
				}
			}
		}
	}
	JOINT RightUpLeg
	{
		OFFSET -12.882952 -6.336288 -1.092769
		CHANNELS 3 Xrotation Yrotation Zrotation
		JOINT RightLeg
		{
			OFFSET -0.517510 -46.096909 9.782776
			CHANNELS 3 Xrotation Yrotation Zrotation
			JOINT RightFoot
			{
				OFFSET 0.532756 -53.427311 -12.948288
				CHANNELS 3 Xrotation Yrotation Zrotation
				JOINT RightToeBase
				{
					OFFSET -0.192224 -14.009682 16.364050
					CHANNELS 3 Xrotation Yrotation Zrotation
					JOINT RightToe_End
					{
						OFFSET 1.784716 -0.561743 9.474806
						CHANNELS 3 Xrotation Yrotation Zrotation
						End Site
						{
							OFFSET 0.000000 0.000000 0.000000
						}
					}
				}
			}
		}
	}
}
MOTION
Frames: 5
Frame Time: 0.016667
-1.950730 130.836700 4.743374 88.602682 9.770872 4.093345 2.266502 6.357807 -2.376177 5.204479 12.461947 -7.272589 0.000000 0.000000 0.000000 5.204488 12.461939 -7.272591 -13.925064 -2.201575 -7.202080 1.344874 -28.177998 -3.371373 -0.000000 -0.000000 -0.000000 -0.946205 7.997299 -0.517668 0.000000 0.000000 0.000000 12.305950 -41.591139 10.114396 -23.513695 -115.612372 -11.034171 29.829663 17.608171 67.526365 -36.963754 -0.002094 -34.165682 4.762510 10.102621 4.812415 -0.000163 0.000430 0.000696 -0.000000 0.000000 -0.000004 7.863073 6.404647 -62.845902 -6.843330 3.481416 -34.360124 0.059584 -0.103150 -4.492657 -0.000000 0.000001 0.000000 3.477631 4.666613 -70.810572 -4.154736 1.351301 -40.909797 -0.000000 0.000727 0.000007 -0.000000 0.000000 -0.000000 4.116390 8.537101 -64.804425 0.477763 -0.614241 -62.174399 -0.000003 0.000929 0.000006 0.000000 0.000000 0.000001 8.633238 3.333072 -80.670360 1.799249 -6.533375 -36.437335 0.000002 -0.001195 -0.000006 -0.000001 -0.000001 0.000000 3.795528 21.519184 -8.237043 0.000000 0.000000 0.000000 -76.938283 23.153353 41.196757 -0.056414 24.900679 0.126387 3.197297 -4.296062 5.152930 -31.679824 0.346557 24.260960 3.524513 -9.532480 -1.717588 -0.000562 0.000701 -0.000276 -0.000002 0.000001 0.000001 3.400124 5.616564 -16.418533 -0.083576 -0.697737 12.717032 0.059596 0.103150 4.492659 0.000001 -0.000000 -0.000003 -0.704403 -8.100289 -15.006347 -1.253156 0.607482 22.217398 0.000003 0.000569 -0.000000 0.000001 -0.000003 0.000000 -6.542207 -22.474903 -6.599108 0.680856 2.844427 22.038654 -0.000015 -0.000927 -0.001161 0.000002 0.000001 0.000000 9.634707 -23.051062 23.512624 0.410920 5.912031 18.869303 -0.000002 0.000214 -0.000014 -0.000000 -0.000000 -0.000001 -13.020605 -14.466365 9.078479 21.187790 7.743436 -0.342570 18.183693 -7.401006 -18.535342 -6.651840 -0.037728 0.077030 0.000001 0.000000 0.000000 -14.686187 -54.046939 -20.166665 13.952476 0.075858 0.465333 15.086271 31.482343 19.973831 11.283686 -0.256428 0.499941 0.000000 0.000001 0.000001 
-1.954659 130.832916 4.675247 88.567282 9.845054 4.090959 2.265879 6.370468 -2.389913 5.197627 12.488350 -7.248145 0.000000 0.000000 0.000000 5.197637 12.488354 -7.248146 -13.955263 -2.219527 -7.151893 1.354295 -28.234293 -3.403386 0.000001 0.000001 -0.000001 -0.954761 8.031870 -0.528419 0.000000 0.000000 0.000000 12.353474 -41.831644 10.231957 -23.638832 -115.438380 -11.111032 29.802028 17.513387 67.457960 -37.051382 -0.141531 -34.220552 4.725953 10.029014 4.834993 -0.000163 0.000430 0.000689 -0.000000 0.000003 -0.000003 7.755839 6.392112 -62.649787 -6.840291 3.478544 -34.291579 0.059585 -0.103150 -4.492657 -0.000001 0.000000 0.000002 3.414988 4.698975 -70.570293 -4.155108 1.351199 -40.920869 -0.000000 0.000726 0.000007 -0.000001 0.000000 -0.000001 4.079736 8.586386 -64.729095 0.478467 -0.615329 -62.187233 -0.000003 0.000930 0.000007 0.000001 0.000000 0.000000 8.551097 3.396978 -80.402576 1.797255 -6.529605 -36.401821 -0.000001 -0.001198 -0.000007 -0.000000 0.000000 0.000003 3.828878 21.676104 -8.281833 0.000000 0.000000 0.000000 -76.910683 23.128580 41.358616 -0.056936 25.159376 0.126483 2.957689 -4.282725 5.404366 -31.503968 0.118032 24.542475 3.538389 -9.563861 -1.711613 -0.000563 0.000704 -0.000271 -0.000000 -0.000000 -0.000000 3.397899 5.513741 -16.601448 -0.089032 -0.690851 12.609326 0.059596 0.103153 4.492664 0.000002 0.000001 0.000000 -0.704396 -8.123508 -15.108256 -1.253861 0.607626 22.234800 0.000006 0.000569 -0.000005 -0.000000 0.000000 0.000000 -6.472362 -22.406950 -6.255033 0.681568 2.849257 22.081814 -0.000013 -0.000927 -0.001158 0.000002 -0.000001 -0.000003 9.685779 -23.124495 23.611163 0.411566 5.913436 18.878423 -0.000006 0.000219 -0.000014 0.000000 -0.000004 0.000000 -12.954956 -14.365136 9.146060 20.991376 6.995789 -0.374118 17.987018 -7.120831 -19.089858 -6.834855 -0.038055 0.077401 0.000001 0.000000 -0.000000 -14.627584 -54.177399 -20.142689 13.981351 0.070262 0.464511 15.119134 31.440525 20.078068 11.263133 -0.256312 0.499819 -0.000000 0.000001 0.000002 
-1.952491 130.829041 4.611259 88.517237 9.944820 4.075552 2.267535 6.382128 -2.399704 5.194859 12.512801 -7.217787 0.000000 0.000000 0.000000 5.194858 12.512800 -7.217784 -14.001812 -2.230695 -7.110232 1.358268 -28.274085 -3.435005 -0.000000 -0.000000 0.000000 -0.964029 8.078119 -0.544236 0.000000 0.000000 0.000000 12.401467 -42.132152 10.345216 -23.801092 -115.246342 -11.224706 29.783815 17.412232 67.371736 -37.130834 -0.267209 -34.271451 4.688387 9.953311 4.858171 -0.000163 0.000432 0.000688 -0.000000 0.000001 -0.000005 7.653323 6.378095 -62.468166 -6.836920 3.475352 -34.215764 0.059584 -0.103150 -4.492656 -0.000000 -0.000001 -0.000001 3.353046 4.730677 -70.331769 -4.155247 1.351160 -40.924888 0.000000 0.000727 0.000007 -0.000000 0.000001 -0.000001 4.041862 8.635851 -64.647467 0.478865 -0.615925 -62.194514 -0.000003 0.000929 0.000006 0.000000 -0.000001 0.000001 8.478684 3.456992 -80.146580 1.795591 -6.526438 -36.371877 0.000000 -0.001198 -0.000002 0.000001 0.000002 -0.000003 3.867155 21.852232 -8.338111 0.000000 0.000000 0.000000 -76.887016 23.106820 41.543007 -0.057480 25.434822 0.126565 2.736192 -4.268564 5.667900 -31.338049 -0.086356 24.793515 3.552277 -9.595245 -1.705637 -0.000563 0.000702 -0.000274 0.000000 0.000000 -0.000000 3.393610 5.422322 -16.756845 -0.091825 -0.685535 12.473455 0.059595 0.103150 4.492665 0.000000 -0.000002 -0.000001 -0.698973 -8.137247 -15.199273 -1.254947 0.608013 22.258084 0.000007 0.000568 -0.000002 -0.000003 0.000000 -0.000003 -6.403407 -22.335426 -5.915135 0.682336 2.854391 22.127528 -0.000012 -0.000926 -0.001160 -0.000002 0.000001 0.000002 9.732465 -23.208612 23.689688 0.410577 5.911413 18.862734 -0.000006 0.000217 -0.000012 0.000001 -0.000001 -0.000001 -12.875209 -14.261345 9.223968 20.776257 6.249369 -0.404726 17.796194 -6.847093 -19.614975 -7.039614 -0.038431 0.077817 0.000001 -0.000000 0.000000 -14.515216 -54.235124 -20.063326 13.992501 0.064056 0.463021 15.069885 31.394094 20.244402 11.236669 -0.256177 0.499674 0.000000 -0.000001 0.000002 
-1.944511 130.824188 4.551375 88.445766 10.069318 4.045620 2.273059 6.392032 -2.403851 5.199917 12.533866 -7.180045 0.000000 0.000000 0.000000 5.199921 12.533874 -7.180046 -14.056933 -2.234065 -7.075663 1.342317 -28.280455 -3.466634 -0.000000 0.000000 -0.000001 -0.973355 8.134297 -0.566733 0.000000 0.000000 0.000000 12.437821 -42.488985 10.439049 -23.991349 -115.040562 -11.366397 29.781261 17.308321 67.263245 -37.191145 -0.358873 -34.314454 4.652407 9.880539 4.880367 -0.000162 0.000432 0.000688 -0.000002 0.000001 -0.000000 7.562903 6.361823 -62.321863 -6.833393 3.472026 -34.137258 0.059584 -0.103148 -4.492656 -0.000000 -0.000001 0.000001 3.299826 4.760471 -70.102767 -4.154848 1.351259 -40.913274 0.000000 0.000725 0.000007 -0.000000 0.000000 -0.000002 4.002709 8.685453 -64.559201 0.478174 -0.614906 -62.182083 -0.000004 0.000930 0.000004 0.000000 -0.000001 0.000001 8.416723 3.506682 -79.930091 1.794125 -6.523652 -36.345721 0.000001 -0.001197 -0.000005 -0.000002 0.000000 -0.000000 3.911041 22.045296 -8.407660 0.000000 0.000000 0.000000 -76.893792 23.064873 41.738125 -0.057991 25.709863 0.126556 2.538545 -4.265086 5.899666 -31.201465 -0.201803 24.907364 3.566146 -9.626631 -1.699643 -0.000561 0.000704 -0.000272 0.000000 0.000001 0.000002 3.374244 5.318780 -16.874334 -0.089306 -0.683296 12.280679 0.059596 0.103152 4.492661 0.000001 0.000003 0.000003 -0.691781 -8.145653 -15.354588 -1.256362 0.608568 22.285987 0.000008 0.000569 -0.000003 0.000003 0.000001 -0.000001 -6.361479 -22.315579 -5.654890 0.683071 2.859369 22.171965 -0.000015 -0.000927 -0.001160 -0.000000 0.000000 -0.000001 9.760117 -23.284163 23.724193 0.406334 5.902823 18.799264 -0.000007 0.000219 -0.000012 -0.000000 0.000003 0.000001 -12.772911 -14.159893 9.315610 20.544908 5.501331 -0.434592 17.605511 -6.589105 -20.125250 -7.261961 -0.038843 0.078271 0.000003 0.000000 -0.000000 -14.331946 -54.215173 -19.920450 13.981774 0.057837 0.460983 14.917666 31.331591 20.523132 11.206128 -0.255996 0.499499 0.000000 0.000000 0.000003 
-1.931916 130.818817 4.498530 88.366057 10.202680 4.005552 2.280277 6.399501 -2.405324 5.208014 12.550091 -7.138664 0.000000 0.000000 0.000000 5.207994 12.550094 -7.138662 -14.121605 -2.230539 -7.050040 1.325339 -28.259809 -3.485896 0.000001 0.000000 -0.000002 -0.982281 8.194890 -0.593843 0.000000 0.000000 0.000000 12.455997 -42.861220 10.503786 -24.189815 -114.844549 -11.520599 29.795799 17.209080 67.138827 -37.243696 -0.438602 -34.352150 4.620720 9.816315 4.899915 -0.000162 0.000430 0.000689 -0.000001 0.000002 -0.000003 7.483565 6.344709 -62.203612 -6.829446 3.468334 -34.049203 0.059583 -0.103149 -4.492656 0.000001 -0.000001 -0.000000 3.251892 4.787212 -69.893339 -4.154074 1.351501 -40.891284 -0.000000 0.000726 0.000008 0.000000 0.000001 0.000002 3.962174 8.734997 -64.464029 0.477218 -0.613456 -62.164844 -0.000004 0.000928 0.000002 -0.000002 0.000001 0.000003 8.371271 3.546148 -79.752943 1.792469 -6.520562 -36.316659 0.000000 -0.001198 -0.000003 -0.000000 0.000000 0.000004 3.958429 22.245081 -8.487581 0.000000 0.000000 0.000000 -76.920190 23.022739 41.941402 -0.058468 25.981123 0.126504 2.396820 -4.263451 6.107818 -31.092083 -0.275063 24.965315 3.580028 -9.658012 -1.693645 -0.000558 0.000703 -0.000272 0.000002 0.000001 0.000001 3.345794 5.214254 -16.956797 -0.087128 -0.680899 12.092031 0.059595 0.103150 4.492668 0.000002 0.000000 0.000000 -0.686903 -8.157064 -15.533252 -1.258178 0.609391 22.319863 0.000003 0.000567 -0.000004 0.000003 0.000002 0.000000 -6.329552 -22.324451 -5.422735 0.683816 2.864573 22.218225 -0.000013 -0.000923 -0.001159 -0.000000 0.000002 0.000001 9.782534 -23.339009 23.760391 0.402594 5.895188 18.742814 -0.000005 0.000220 -0.000011 0.000000 0.000001 0.000002 -12.657708 -14.058628 9.413956 20.301008 4.769138 -0.463042 17.413231 -6.339948 -20.613062 -7.494343 -0.039260 0.078741 0.000003 -0.000000 -0.000000 -14.110607 -54.131831 -19.734962 13.955651 0.050857 0.458395 14.694548 31.239923 20.854975 11.173943 -0.255818 0.499338 0.000001 -0.000000 -0.000000 
